<svg width="24" height="24" viewBox="0 0 24 24" fill="none" xmlns="http://www.w3.org/2000/svg">
<path fill-rule="evenodd" clip-rule="evenodd" d="M20 2.40002C20.8837 2.40002 21.6 3.11637 21.6 4.00002L21.6 20C21.6 20.8837 20.8837 21.6 20 21.6L4 21.6C3.11634 21.6 2.4 20.8837 2.4 20L2.4 4.00002C2.4 3.11637 3.11634 2.40002 4 2.40002L20 2.40002ZM20.4 4.00002C20.4 3.77911 20.2209 3.60002 20 3.60002L12.6 3.60002L12.6 13.5515L16.5757 9.57576L17.4243 10.4243L12 15.8486L6.57573 10.4243L7.42426 9.57576L11.4 13.5515L11.4 3.60002L4 3.60002C3.77909 3.60002 3.6 3.77911 3.6 4.00002L3.6 20C3.6 20.2209 3.77908 20.4 4 20.4L20 20.4C20.2209 20.4 20.4 20.2209 20.4 20L20.4 4.00002Z" fill="black"/>
</svg>
