<svg width="24" height="24" viewBox="0 0 24 24" fill="none" xmlns="http://www.w3.org/2000/svg">
<path fill-rule="evenodd" clip-rule="evenodd" d="M4 21.6C3.11635 21.6 2.4 20.8836 2.4 20L2.4 3.99998C2.4 3.11632 3.11634 2.39997 4 2.39997L20 2.39997C20.8837 2.39997 21.6 3.11632 21.6 3.99997L21.6 20C21.6 20.8836 20.8837 21.6 20 21.6L4 21.6ZM3.6 20C3.6 20.2209 3.77909 20.4 4 20.4L11.4 20.4L11.4 10.4485L7.42427 14.4242L6.57574 13.5757L12 8.15145L17.4243 13.5757L16.5757 14.4242L12.6 10.4485L12.6 20.4L20 20.4C20.2209 20.4 20.4 20.2209 20.4 20L20.4 3.99997C20.4 3.77906 20.2209 3.59997 20 3.59997L4 3.59998C3.77909 3.59998 3.6 3.77906 3.6 3.99998L3.6 20Z" fill="black"/>
</svg>
