<svg width="24" height="24" viewBox="0 0 24 24" fill="none" xmlns="http://www.w3.org/2000/svg">
<path fill-rule="evenodd" clip-rule="evenodd" d="M21.6 20C21.6 20.8836 20.8837 21.6 20 21.6L4.00001 21.6C3.11635 21.6 2.40001 20.8836 2.40001 20L2.40001 3.99997C2.40001 3.11632 3.11635 2.39997 4.00001 2.39997L20 2.39997C20.8837 2.39997 21.6 3.11632 21.6 3.99998L21.6 20ZM20 20.4C20.2209 20.4 20.4 20.2209 20.4 20L20.4 12.6L10.4485 12.6L14.4243 16.5757L13.5757 17.4242L8.15148 12L13.5757 6.57571L14.4243 7.42424L10.4485 11.4L20.4 11.4L20.4 3.99998C20.4 3.77906 20.2209 3.59998 20 3.59998L4.00001 3.59997C3.77909 3.59997 3.60001 3.77906 3.60001 3.99997L3.60001 20C3.60001 20.2209 3.77909 20.4 4.00001 20.4L20 20.4Z" fill="black"/>
</svg>
