<svg width="24" height="24" viewBox="0 0 24 24" fill="none" xmlns="http://www.w3.org/2000/svg">
<path fill-rule="evenodd" clip-rule="evenodd" d="M12 2.2C6.58761 2.2 2.2 6.58761 2.2 12C2.2 17.4124 6.58761 21.8 12 21.8C17.4124 21.8 21.8 17.4124 21.8 12C21.8 6.58761 17.4124 2.2 12 2.2ZM12 0.999999C5.92487 0.999999 1 5.92487 1 12C1 18.0751 5.92487 23 12 23C18.0751 23 23 18.0751 23 12C23 5.92487 18.0751 1 12 0.999999Z" fill="black"/>
<path fill-rule="evenodd" clip-rule="evenodd" d="M12 15.5L7 10.5L17 10.5L12 15.5ZM14.1029 11.7L9.89706 11.7L12 13.8029L14.1029 11.7Z" fill="black"/>
</svg>
