<svg width="24" height="24" viewBox="0 0 24 24" fill="none" xmlns="http://www.w3.org/2000/svg">
<path fill-rule="evenodd" clip-rule="evenodd" d="M2.4 4.00002C2.4 3.11637 3.11635 2.40002 4 2.40002H20C20.8837 2.40002 21.6 3.11637 21.6 4.00002V20C21.6 20.8837 20.8837 21.6 20 21.6H4C3.11635 21.6 2.4 20.8837 2.4 20V4.00002ZM4 3.60002C3.77909 3.60002 3.6 3.77911 3.6 4.00002V11.4H13.5515L9.57574 7.42429L10.4243 6.57576L15.8485 12L10.4243 17.4243L9.57574 16.5758L13.5515 12.6H3.6V20C3.6 20.2209 3.77909 20.4 4 20.4H20C20.2209 20.4 20.4 20.2209 20.4 20V4.00002C20.4 3.77911 20.2209 3.60002 20 3.60002H4Z" fill="black"/>
</svg>
