<svg width="24" height="24" viewBox="0 0 24 24" fill="none" xmlns="http://www.w3.org/2000/svg">
<path fill-rule="evenodd" clip-rule="evenodd" d="M10.2296 4.44565C10.4538 4.53852 10.6 4.7573 10.6 4.99998V8.42506C14.8535 8.77476 20.4037 12.7728 21.5918 19.9013C21.6373 20.1742 21.4904 20.4428 21.236 20.5516C20.9817 20.6604 20.686 20.5813 20.52 20.36C19.7826 19.3768 18.8401 18.2045 17.2566 17.2662C15.7707 16.3856 13.6792 15.688 10.6 15.6077V19C10.6 19.2427 10.4538 19.4614 10.2296 19.5543C10.0054 19.6472 9.74734 19.5958 9.57574 19.4242L2.15147 12L9.57574 4.57572C9.74734 4.40412 10.0054 4.35278 10.2296 4.44565ZM3.84853 12L9.4 17.5515V14.4H10C13.5895 14.4 16.0739 15.1704 17.8684 16.2338C18.6316 16.6861 19.2615 17.1866 19.7922 17.6908C17.9102 12.3429 13.2325 9.59998 10 9.59998H9.4V6.44851L3.84853 12Z" fill="black"/>
</svg>
