<svg width="24" height="24" viewBox="0 0 24 24" fill="none" xmlns="http://www.w3.org/2000/svg">
<path fill-rule="evenodd" clip-rule="evenodd" d="M13.7704 4.44565C13.5462 4.53852 13.4 4.7573 13.4 4.99998V8.42506C9.14647 8.77476 3.59626 12.7728 2.40816 19.9013C2.36269 20.1742 2.50964 20.4428 2.76396 20.5516C3.01827 20.6604 3.31403 20.5813 3.48 20.36C4.21735 19.3768 5.15994 18.2045 6.74338 17.2662C8.22929 16.3856 10.3208 15.688 13.4 15.6077V19C13.4 19.2427 13.5462 19.4614 13.7704 19.5543C13.9946 19.6472 14.2527 19.5958 14.4243 19.4242L21.8485 12L14.4243 4.57572C14.2527 4.40412 13.9946 4.35278 13.7704 4.44565ZM20.1515 12L14.6 17.5515V14.4H14C10.4105 14.4 7.92614 15.1704 6.13162 16.2338C5.36843 16.6861 4.73847 17.1866 4.20777 17.6908C6.08983 12.3429 10.7675 9.59998 14 9.59998H14.6V6.44851L20.1515 12Z" fill="black"/>
</svg>
