<svg width="24" height="24" viewBox="0 0 24 24" fill="none" xmlns="http://www.w3.org/2000/svg">
<path fill-rule="evenodd" clip-rule="evenodd" d="M12 4.60002C7.91309 4.60002 4.6 7.91312 4.6 12H3.4C3.4 7.25038 7.25035 3.40002 12 3.40002C14.6343 3.40002 16.9923 4.58514 18.5689 6.44914L17.6527 7.22409C16.2944 5.61814 14.2664 4.60002 12 4.60002ZM12 19.4C16.0869 19.4 19.4 16.0869 19.4 12H20.6C20.6 16.7497 16.7497 20.6 12 20.6C9.43507 20.6 7.13182 19.4764 5.55703 17.6965L6.45577 16.9013C7.81244 18.4347 9.79311 19.4 12 19.4Z" fill="black"/>
<path fill-rule="evenodd" clip-rule="evenodd" d="M16.8971 8.8H19.8V5.89706L16.8971 8.8ZM14 10L21 3V10H14Z" fill="black"/>
<path fill-rule="evenodd" clip-rule="evenodd" d="M7.10294 15.2H4.2V18.1029L7.10294 15.2ZM10 14L3 21V14H10Z" fill="black"/>
</svg>
