<svg width="24" height="24" viewBox="0 0 24 24" fill="none" xmlns="http://www.w3.org/2000/svg">
<path fill-rule="evenodd" clip-rule="evenodd" d="M19.4 12C19.4 7.91312 16.0869 4.60002 12 4.60002L12 3.40002C16.7497 3.40002 20.6 7.25038 20.6 12C20.6 14.6399 19.4098 17.0025 17.5389 18.5791L16.7656 17.6615C18.3775 16.3031 19.4 14.2713 19.4 12ZM4.60001 12C4.60001 16.0869 7.9131 19.4 12 19.4L12 20.6C7.25036 20.6 3.4 16.7497 3.4 12C3.40001 9.39265 4.56108 7.0558 6.39232 5.47957L7.17516 6.38906C5.59747 7.74705 4.60001 9.75672 4.60001 12Z" fill="black"/>
<path fill-rule="evenodd" clip-rule="evenodd" d="M15.2 16.8971L15.2 19.8L18.1029 19.8L15.2 16.8971ZM14 14L21 21L14 21L14 14Z" fill="black"/>
<path fill-rule="evenodd" clip-rule="evenodd" d="M8.8 7.10294L8.8 4.2L5.89706 4.2L8.8 7.10294ZM10 10L3 3L10 3L10 10Z" fill="black"/>
</svg>
