<svg width="24" height="24" viewBox="0 0 24 24" fill="none" xmlns="http://www.w3.org/2000/svg">
<path d="M12 4.60002C7.91309 4.60002 4.6 7.91312 4.6 12C4.6 15.7448 7.38163 18.8399 10.9914 19.3319V20.5415C6.71703 20.0422 3.4 16.4085 3.4 12C3.4 7.25038 7.25035 3.40002 12 3.40002C14.5687 3.40002 16.8749 4.52693 18.4498 6.31134L17.5502 7.10542C16.1933 5.56814 14.2101 4.60002 12 4.60002Z" fill="black"/>
<path d="M19.4 12H20.6C20.6 12.9941 20.4314 13.9487 20.1211 14.8369L19.0312 14.3136C19.2705 13.5857 19.4 12.808 19.4 12Z" fill="black"/>
<path d="M13.0086 20.5415V19.3319C13.7194 19.235 14.3982 19.0372 15.0299 18.7533L15.6839 19.7733C14.8563 20.1662 13.956 20.4308 13.0086 20.5415Z" fill="black"/>
<path d="M17.3809 18.7091L16.7341 17.6879C17.2822 17.2311 17.7634 16.6966 18.1605 16.1013L19.2396 16.644C18.735 17.429 18.1061 18.1267 17.3809 18.7091Z" fill="black"/>
<path fill-rule="evenodd" clip-rule="evenodd" d="M16.8971 8.8H19.8V5.89706L16.8971 8.8ZM14 10L21 3V10H14Z" fill="black"/>
</svg>
