<svg width="24" height="24" viewBox="0 0 24 24" fill="none" xmlns="http://www.w3.org/2000/svg">
<path fill-rule="evenodd" clip-rule="evenodd" d="M12 4.60002C7.91309 4.60002 4.6 7.91312 4.6 12C4.6 16.0869 7.91309 19.4 12 19.4C16.0869 19.4 19.4 16.0869 19.4 12H20.6C20.6 16.7497 16.7497 20.6 12 20.6C7.25035 20.6 3.4 16.7497 3.4 12C3.4 7.25038 7.25035 3.40002 12 3.40002C14.5687 3.40002 16.8749 4.52693 18.4498 6.31134L17.5502 7.10542C16.1933 5.56814 14.2101 4.60002 12 4.60002Z" fill="black"/>
<path fill-rule="evenodd" clip-rule="evenodd" d="M16.8971 8.8H19.8V5.89706L16.8971 8.8ZM14 10L21 3V10H14Z" fill="black"/>
</svg>
