<svg width="24" height="24" viewBox="0 0 24 24" fill="none" xmlns="http://www.w3.org/2000/svg">
<path fill-rule="evenodd" clip-rule="evenodd" d="M9 5.60002C7.67452 5.60002 6.6 6.67454 6.6 8.00002V15.4H8.94853L6 18.3486L3.05147 15.4H5.4V8.00002C5.4 6.0118 7.01178 4.40002 9 4.40002C10.9882 4.40002 12.6 6.0118 12.6 8.00002V15C12.6 16.3255 13.6745 17.4 15 17.4C16.3255 17.4 17.4 16.3255 17.4 15V7.60002H15.0515L18 4.6515L20.9485 7.60002H18.6V15C18.6 16.9883 16.9882 18.6 15 18.6C13.0118 18.6 11.4 16.9883 11.4 15V8.00002C11.4 6.67454 10.3255 5.60002 9 5.60002ZM17.9485 6.40002H18.0515L18 6.34855L17.9485 6.40002ZM5.94853 16.6L6 16.6515L6.05147 16.6H5.94853Z" fill="black"/>
</svg>
